<svg width="22" height="22" viewBox="0 0 22 22" fill="none" xmlns="http://www.w3.org/2000/svg">
<path d="M17.4935 0.923828C15.5148 0.923828 13.8951 2.54349 13.8951 4.52221C13.8951 4.84468 13.9417 5.1557 14.0223 5.45357L7.36397 8.78319C6.70342 7.94442 5.68244 7.40153 4.53819 7.40153C2.55946 7.40153 0.939804 9.02119 0.939804 10.9999C0.939804 12.9786 2.55946 14.5983 4.53819 14.5983C5.68112 14.5983 6.70274 14.0554 7.36334 13.2171L14.0225 16.5468C13.9425 16.8446 13.8953 17.1551 13.8953 17.4776C13.8953 19.4563 15.515 21.076 17.4937 21.076C19.4724 21.076 21.0921 19.4563 21.0921 17.4776C21.0921 15.4989 19.4724 13.8792 17.4937 13.8792C16.3494 13.8792 15.3286 14.4221 14.6679 15.2609L8.00962 11.9313C8.09024 11.6334 8.13678 11.3223 8.13678 10.9999C8.13678 10.6774 8.09024 10.3669 8.00962 10.0691L14.6688 6.73945C15.3293 7.5777 16.3503 8.12059 17.4939 8.12059C19.4726 8.12059 21.0923 6.50093 21.0923 4.52221C21.0923 2.54349 19.4726 0.923828 17.4939 0.923828H17.4935ZM17.4935 2.36349C18.6945 2.36349 19.6529 3.32191 19.6529 4.52289C19.6529 5.72387 18.6945 6.6823 17.4935 6.6823C16.2925 6.6823 15.3341 5.72387 15.3341 4.52289C15.3341 3.32191 16.2925 2.36349 17.4935 2.36349ZM4.53817 8.84051C5.73915 8.84051 6.69758 9.79893 6.69758 10.9999C6.69758 12.2009 5.73915 13.1593 4.53817 13.1593C3.3372 13.1593 2.37877 12.2009 2.37877 10.9999C2.37877 9.79893 3.3372 8.84051 4.53817 8.84051ZM17.4935 15.3184C18.6945 15.3184 19.6529 16.2768 19.6529 17.4778C19.6529 18.6788 18.6945 19.6372 17.4935 19.6372C16.2925 19.6372 15.3341 18.6788 15.3341 17.4778C15.3341 16.2768 16.2925 15.3184 17.4935 15.3184Z" fill="black"/>
</svg>
